<mxfile host="65bd71144e">
    <diagram id="5WooASzhLQ7mhA_z6lhD" name="FaaS">
        <mxGraphModel dx="557" dy="528" grid="1" gridSize="10" guides="1" tooltips="1" connect="1" arrows="1" fold="1" page="1" pageScale="1" pageWidth="850" pageHeight="1100" math="0" shadow="0">
            <root>
                <mxCell id="0"/>
                <mxCell id="1" parent="0"/>
                <mxCell id="39" value="" style="rounded=0;whiteSpace=wrap;html=1;strokeColor=none;" parent="1" vertex="1">
                    <mxGeometry x="30" y="50" width="610" height="356" as="geometry"/>
                </mxCell>
                <mxCell id="22" value="" style="rounded=0;whiteSpace=wrap;html=1;dashed=1;fillColor=#f5f5f5;fontColor=#333333;strokeColor=#666666;" parent="1" vertex="1">
                    <mxGeometry x="150" y="160" width="160" height="220" as="geometry"/>
                </mxCell>
                <mxCell id="2" value="spot_update()" style="rounded=0;whiteSpace=wrap;html=1;fillColor=#dae8fc;strokeColor=#6c8ebf;" parent="1" vertex="1">
                    <mxGeometry x="160" y="170" width="140" height="40" as="geometry"/>
                </mxCell>
                <mxCell id="4" value="" style="shape=image;verticalLabelPosition=bottom;labelBackgroundColor=default;verticalAlign=top;aspect=fixed;imageAspect=0;image=https://cdn-icons-png.flaticon.com/512/3680/3680366.png;" parent="1" vertex="1">
                    <mxGeometry x="524.45" y="120" width="80" height="80" as="geometry"/>
                </mxCell>
                <mxCell id="7" value="" style="html=1;verticalLabelPosition=bottom;align=center;labelBackgroundColor=#ffffff;verticalAlign=top;strokeWidth=2;strokeColor=#000000;shadow=0;dashed=0;shape=mxgraph.ios7.icons.lightbulb;" parent="1" vertex="1">
                    <mxGeometry x="553.0500000000001" y="290" width="22.8" height="29.7" as="geometry"/>
                </mxCell>
                <mxCell id="8" value="App" style="html=1;verticalLabelPosition=bottom;align=center;labelBackgroundColor=#ffffff;verticalAlign=top;strokeWidth=2;strokeColor=#000000;shadow=0;dashed=0;shape=mxgraph.ios7.icons.smartphone;" parent="1" vertex="1">
                    <mxGeometry x="50" y="204.85" width="30" height="50.5" as="geometry"/>
                </mxCell>
                <mxCell id="10" value="MQTT&amp;nbsp;&lt;div&gt;Broker&lt;/div&gt;&lt;div&gt;&lt;br&gt;&lt;/div&gt;" style="sketch=0;outlineConnect=0;fontColor=#232F3E;gradientColor=none;fillColor=#0000FF;strokeColor=none;dashed=0;verticalLabelPosition=bottom;verticalAlign=top;align=center;html=1;fontSize=12;fontStyle=0;aspect=fixed;pointerEvents=1;shape=mxgraph.aws4.mq_broker;" parent="1" vertex="1">
                    <mxGeometry x="386" y="186.35" width="78" height="69" as="geometry"/>
                </mxCell>
                <mxCell id="13" value="" style="sketch=0;outlineConnect=0;fontColor=#232F3E;gradientColor=none;fillColor=#000000;strokeColor=none;dashed=0;verticalLabelPosition=bottom;verticalAlign=top;align=center;html=1;fontSize=12;fontStyle=0;aspect=fixed;pointerEvents=1;shape=mxgraph.aws4.sensor;" parent="1" vertex="1">
                    <mxGeometry x="540" y="220" width="48.91" height="54.5" as="geometry"/>
                </mxCell>
                <mxCell id="15" value="" style="shape=cylinder3;whiteSpace=wrap;html=1;boundedLbl=1;backgroundOutline=1;size=6.133343505859358;fillColor=#fff2cc;strokeColor=#d6b656;" parent="1" vertex="1">
                    <mxGeometry x="180" y="80" width="100" height="40" as="geometry"/>
                </mxCell>
                <mxCell id="16" value="reserve_update()" style="rounded=0;whiteSpace=wrap;html=1;fillColor=#dae8fc;strokeColor=#6c8ebf;" parent="1" vertex="1">
                    <mxGeometry x="160" y="214.5" width="140" height="40" as="geometry"/>
                </mxCell>
                <mxCell id="17" value="get_available_count()" style="rounded=0;whiteSpace=wrap;html=1;fillColor=#dae8fc;strokeColor=#6c8ebf;" parent="1" vertex="1">
                    <mxGeometry x="160" y="260" width="140" height="40" as="geometry"/>
                </mxCell>
                <mxCell id="19" value="add_spot()&lt;div&gt;remove_spot()&lt;/div&gt;" style="rounded=0;whiteSpace=wrap;html=1;fillColor=#dae8fc;strokeColor=#6c8ebf;" parent="1" vertex="1">
                    <mxGeometry x="160" y="330" width="140" height="40" as="geometry"/>
                </mxCell>
                <mxCell id="21" value="Admin" style="shape=image;editableCssRules=.*;verticalLabelPosition=bottom;labelBackgroundColor=default;verticalAlign=top;aspect=fixed;imageAspect=0;image=data:image/svg+xml,PHN2ZyB4bWxucz0iaHR0cDovL3d3dy53My5vcmcvMjAwMC9zdmciIHZpZXdCb3g9Ii0wLjUgLTAuNSAyNC4yMzMgMjgiIGhlaWdodD0iMjgiIHdpZHRoPSIyNC4yMzMiPiYjeGE7CSAgPHN0eWxlIHR5cGU9InRleHQvY3NzIj4uc3QwIHsgc3RvcC1jb2xvcjogcmdiKDkxLCAxMTUsIDEzOSk7IH0gLnN0MSB7IHN0b3AtY29sb3I6IHJnYigzNCwgNTMsIDcyKTsgfSA8L3N0eWxlPiYjeGE7CTxkZWZzPiYjeGE7CQk8bGluZWFyR3JhZGllbnQgZ3JhZGllbnRVbml0cz0idXNlclNwYWNlT25Vc2UiIHkyPSIyMi4yMjkiIHgyPSIyMi45NSIgeTE9IjMuNDc0IiB4MT0iMS42OTgiIGlkPSJBIj4mI3hhOwkJCTxzdG9wIGNsYXNzPSJzdDAiLz4mI3hhOwkJCTxzdG9wIGNsYXNzPSJzdDEiIG9mZnNldD0iMSIvPiYjeGE7CQk8L2xpbmVhckdyYWRpZW50PiYjeGE7CTwvZGVmcz4mI3hhOwk8cGF0aCBmaWxsPSJ1cmwoI0EpIiBkPSJNMTUuNTUyIDExLjYwOGwtLjkzMS0uNDM4aC4wMDJhNy4wMyA3LjAzIDAgMCAwIDEuNDgtMi4xOTJjLjQwMS0uODQuNjAzLTEuNzUzLjYwMy0yLjczOSAwLS45NS0uMTg0LTEuODI3LS41NDktMi42M2E2LjQ1IDYuNDUgMCAwIDAtMS40MjQtMi4xMzdDMTQuMTExLjg1MiAxMy4zOTkuMzc3IDEyLjU5Ni4wNDlBNi4yNyA2LjI3IDAgMCAwIDkuOTY2LS41Yy0uOTE0IDAtMS43OS4xODItMi42My41NDdhNi4zMiA2LjMyIDAgMCAwLTIuMTkyIDEuNDI1QTcuOCA3LjggMCAwIDAgMy43MTkgMy42MWMtLjM2NS44MDMtLjU0NyAxLjY4LS41NDcgMi42M2E2LjYzIDYuNjMgMCAwIDAgLjYwMSAyLjc5M2MuMzk3LjgzMy45NTYgMS41NzggMS42NDUgMi4xOTItMS43NTMuNjk0LTMuMTc3IDEuODQ2LTQuMjczIDMuNDUyQy4wNDkgMTYuMjQ4LS41IDE4LjA1NS0uNSAyMC4xMDF2Mi43NGMtLjAwOS4zNC4xMDguNjcyLjMyOC45MzFhMS4zOCAxLjM4IDAgMCAwIC45MzMuMzI4aDkuMzFjLjE1Mi4wMDQuMzA0LS4wMjMuNDQ1LS4wOHMuMjctLjE0Mi4zNzctLjI1YTEuMjcgMS4yNyAwIDAgMCAuMzg0LS45MjkgMS4wNCAxLjA0IDAgMCAwLS4zODQtLjgyMmMtLjIxOS0uMjU2LS40OTMtLjM4NC0uODIyLS4zODRIMS45NjZ2LTEuNTM0YzAtLjk4Ny4xNjMtMS44OTkuNDkxLTIuNzQuMzQxLS44MzkuODQzLTEuNjAyIDEuNDgtMi4yNDYuNjIxLS42NTggMS4zMzQtMS4xNjggMi4xMzctMS41MzRhNi42NyA2LjY3IDAgMCAxIDIuNjg0LS41NDdoMi42M2MuODA2LS4wMDYgMS42MDYuMTQyIDIuMzU3LjQzOC43NjYuMjU2IDEuMzY5LjU4NCAxLjgwOC45ODdhMi41OCAyLjU4IDAgMCAwIC42NTcuNDkxYy4xOTguMDY3LjM5OS4xMjIuNjAzLjE2NS4yOTMgMCAuNTY2LS4xMjguODIyLS4zODIuMTgyLS4xODIuMjczLS4zODQuMjczLS42MDN2LS4xNjVjLS4wMDgtLjM0Ny0uMTQ1LS42NzktLjM4NC0uOTMxYTUuMTggNS4xOCAwIDAgMC0uOTMxLS44MjIgNC4zMSA0LjMxIDAgMCAwLTEuMDQxLS42MDN6bS0yLjU3Ni0yLjMwMmMtLjgzOC44NDItMS44NDQgMS4yNjItMy4wMTIgMS4yNjJ2LS4wMDJjLTEuMTY5IDAtMi4xOTItLjQxOS0zLjA2OC0xLjI1OUE0LjE4IDQuMTggMCAwIDEgNS42MzUgNi4yNGE0LjExIDQuMTEgMCAwIDEgMS4yNjEtMy4wMTRjLjg3Ny0uODQgMS44OTktMS4yNjEgMy4wNjgtMS4yNjFhNC4xMSA0LjExIDAgMCAxIDMuMDEyIDEuMjYxYy44NzcuODQgMS4zMTUgMS44NDQgMS4zMTUgMy4wMTJhNC4wOCA0LjA4IDAgMCAxLTEuMzE1IDMuMDY4em0uMTUxIDE2LjMwOWEuODUuODUgMCAwIDEgLjIxMy0uNTdsNC4wMDEtNC4xNDJjLS4wOTUtLjMxNC0uMTQyLS42MzctLjE0Mi0uOTY3YTMuNjEgMy42MSAwIDAgMSAuMjYtMS4zNjRjLjE3NC0uNDMuNDE4LS44MDIuNzM0LTEuMTE2YTMuMTQgMy4xNCAwIDAgMSAxLjA2NS0uNzY5Yy4zOTUtLjE5OC44MjktLjI5OCAxLjMwMi0uMjk4YTMuMDkgMy4wOSAwIDAgMSAxLjk2NS42N2MuNTY4LjQzLjk3MS45OTIgMS4yMDcgMS42ODZIMjAuOTRjLS4yMjEgMC0uNDM0LjA3NC0uNjM5LjIyMy0uMjIxLjE0OS0uMzMxLjMzOS0uMzMxLjU3di43OTRjMCAuMjMyLjExLjQzLjMzMS41OTUuMjA1LjE0OS40MTguMjIzLjYzOS4yMjNoMi43OTRjLS4yMzcuNjYxLS42MzkgMS4yMTUtMS4yMDcgMS42NjItLjU2OC40My0xLjIyMy42NDUtMS45NjUuNjQ1LS40NTggMC0uODY4LS4wODMtMS4yMzEtLjI0OGwtMy44NTkgNC4wNjdhLjcyLjcyIDAgMCAxLS41NDQuMjIzYy0uMTg5IDAtLjM1NS0uMDc0LS40OTctLjIyM2wtMS4wODktMS4xNDFhLjczLjczIDAgMCAxLS4yMTMtLjUyMXoiIGZpbGwtcnVsZT0iZXZlbm9kZCIvPiYjeGE7PC9zdmc+;" parent="1" vertex="1">
                    <mxGeometry x="50" y="313.33" width="48.57" height="56.67" as="geometry"/>
                </mxCell>
                <mxCell id="23" value="" style="endArrow=classic;html=1;entryX=0.363;entryY=0.978;entryDx=0;entryDy=0;entryPerimeter=0;exitX=0.417;exitY=0.003;exitDx=0;exitDy=0;exitPerimeter=0;" parent="1" source="22" target="15" edge="1">
                    <mxGeometry width="50" height="50" relative="1" as="geometry">
                        <mxPoint x="260" y="240" as="sourcePoint"/>
                        <mxPoint x="310" y="190" as="targetPoint"/>
                    </mxGeometry>
                </mxCell>
                <mxCell id="27" value="" style="endArrow=classic;html=1;entryX=0.588;entryY=0.006;entryDx=0;entryDy=0;entryPerimeter=0;exitX=0.637;exitY=1.015;exitDx=0;exitDy=0;exitPerimeter=0;" parent="1" source="15" target="22" edge="1">
                    <mxGeometry width="50" height="50" relative="1" as="geometry">
                        <mxPoint x="227" y="170" as="sourcePoint"/>
                        <mxPoint x="226" y="129" as="targetPoint"/>
                    </mxGeometry>
                </mxCell>
                <mxCell id="30" value="" style="endArrow=classic;html=1;entryX=1;entryY=0.5;entryDx=0;entryDy=0;" parent="1" target="2" edge="1">
                    <mxGeometry width="50" height="50" relative="1" as="geometry">
                        <mxPoint x="380" y="200" as="sourcePoint"/>
                        <mxPoint x="280" y="220" as="targetPoint"/>
                    </mxGeometry>
                </mxCell>
                <mxCell id="31" value="" style="endArrow=classic;html=1;" parent="1" source="16" edge="1">
                    <mxGeometry width="50" height="50" relative="1" as="geometry">
                        <mxPoint x="380" y="190" as="sourcePoint"/>
                        <mxPoint x="380" y="235" as="targetPoint"/>
                    </mxGeometry>
                </mxCell>
                <mxCell id="32" value="" style="endArrow=classic;html=1;entryX=1;entryY=0.5;entryDx=0;entryDy=0;" parent="1" edge="1">
                    <mxGeometry width="50" height="50" relative="1" as="geometry">
                        <mxPoint x="530" y="240" as="sourcePoint"/>
                        <mxPoint x="470" y="215.85" as="targetPoint"/>
                    </mxGeometry>
                </mxCell>
                <mxCell id="33" value="" style="endArrow=classic;html=1;" parent="1" edge="1">
                    <mxGeometry width="50" height="50" relative="1" as="geometry">
                        <mxPoint x="470" y="244.5" as="sourcePoint"/>
                        <mxPoint x="550" y="310" as="targetPoint"/>
                    </mxGeometry>
                </mxCell>
                <mxCell id="34" value="turn_on_light()" style="edgeLabel;html=1;align=center;verticalAlign=middle;resizable=0;points=[];" parent="33" vertex="1" connectable="0">
                    <mxGeometry x="0.1" y="2" relative="1" as="geometry">
                        <mxPoint x="-25" y="26" as="offset"/>
                    </mxGeometry>
                </mxCell>
                <mxCell id="35" value="" style="endArrow=classic;html=1;entryX=0;entryY=0.5;entryDx=0;entryDy=0;" parent="1" target="16" edge="1">
                    <mxGeometry width="50" height="50" relative="1" as="geometry">
                        <mxPoint x="90" y="235" as="sourcePoint"/>
                        <mxPoint x="310" y="200" as="targetPoint"/>
                    </mxGeometry>
                </mxCell>
                <mxCell id="36" value="" style="endArrow=classic;html=1;entryX=0;entryY=0.5;entryDx=0;entryDy=0;" parent="1" target="17" edge="1">
                    <mxGeometry width="50" height="50" relative="1" as="geometry">
                        <mxPoint x="90" y="245" as="sourcePoint"/>
                        <mxPoint x="170" y="245" as="targetPoint"/>
                    </mxGeometry>
                </mxCell>
                <mxCell id="38" value="" style="endArrow=classic;html=1;" parent="1" edge="1">
                    <mxGeometry width="50" height="50" relative="1" as="geometry">
                        <mxPoint x="108.57" y="350" as="sourcePoint"/>
                        <mxPoint x="160" y="350" as="targetPoint"/>
                    </mxGeometry>
                </mxCell>
                <mxCell id="40" value="FaaS" style="text;html=1;align=center;verticalAlign=middle;whiteSpace=wrap;rounded=0;" parent="1" vertex="1">
                    <mxGeometry x="200" y="380" width="60" height="30" as="geometry"/>
                </mxCell>
                <mxCell id="vjQcHdK9pBzm7yYrt8ro-40" value="Parking Spot" style="text;html=1;align=center;verticalAlign=middle;resizable=0;points=[];autosize=1;strokeColor=none;fillColor=none;" vertex="1" parent="1">
                    <mxGeometry x="517.45" y="196" width="90" height="30" as="geometry"/>
                </mxCell>
                <mxCell id="vjQcHdK9pBzm7yYrt8ro-41" value="Signal Light" style="text;html=1;align=center;verticalAlign=middle;resizable=0;points=[];autosize=1;strokeColor=none;fillColor=none;" vertex="1" parent="1">
                    <mxGeometry x="519.45" y="319.7" width="90" height="30" as="geometry"/>
                </mxCell>
                <mxCell id="hmcLS8fID-irjcVAFLDJ-41" value="spot_status" style="text;html=1;align=center;verticalAlign=middle;resizable=0;points=[];autosize=1;strokeColor=none;fillColor=none;" vertex="1" parent="1">
                    <mxGeometry x="190" y="90" width="80" height="30" as="geometry"/>
                </mxCell>
                <mxCell id="A2OI-RpEvP-Nks3yEiiG-40" value="&lt;div&gt;&lt;br&gt;&lt;/div&gt;" style="text;html=1;align=center;verticalAlign=middle;resizable=0;points=[];autosize=1;strokeColor=none;fillColor=none;" vertex="1" parent="1">
                    <mxGeometry x="220" y="80" width="20" height="30" as="geometry"/>
                </mxCell>
                <mxCell id="A2OI-RpEvP-Nks3yEiiG-42" value="Database" style="text;html=1;align=center;verticalAlign=middle;resizable=0;points=[];autosize=1;strokeColor=none;fillColor=none;" vertex="1" parent="1">
                    <mxGeometry x="195" y="57" width="70" height="30" as="geometry"/>
                </mxCell>
            </root>
        </mxGraphModel>
    </diagram>
    <diagram id="JGJLfGFwV_YKFBnx3G9p" name="OaaS">
        <mxGraphModel dx="557" dy="528" grid="1" gridSize="10" guides="1" tooltips="1" connect="1" arrows="1" fold="1" page="1" pageScale="1" pageWidth="850" pageHeight="1100" math="0" shadow="0">
            <root>
                <mxCell id="0"/>
                <mxCell id="1" parent="0"/>
                <mxCell id="2QI1dtcu6XnmUE_soGYw-1" value="" style="rounded=0;whiteSpace=wrap;html=1;strokeColor=none;" parent="1" vertex="1">
                    <mxGeometry x="30" y="120" width="610" height="286" as="geometry"/>
                </mxCell>
                <mxCell id="2QI1dtcu6XnmUE_soGYw-2" value="" style="rounded=0;whiteSpace=wrap;html=1;dashed=1;fillColor=#f5f5f5;fontColor=#333333;strokeColor=#666666;" parent="1" vertex="1">
                    <mxGeometry x="150" y="170" width="340" height="210" as="geometry"/>
                </mxCell>
                <mxCell id="2QI1dtcu6XnmUE_soGYw-3" value="" style="shape=image;verticalLabelPosition=bottom;labelBackgroundColor=default;verticalAlign=top;aspect=fixed;imageAspect=0;image=https://cdn-icons-png.flaticon.com/512/3680/3680366.png;" parent="1" vertex="1">
                    <mxGeometry x="529.45" y="130" width="80" height="80" as="geometry"/>
                </mxCell>
                <mxCell id="2QI1dtcu6XnmUE_soGYw-4" value="" style="html=1;verticalLabelPosition=bottom;align=center;labelBackgroundColor=#ffffff;verticalAlign=top;strokeWidth=2;strokeColor=#000000;shadow=0;dashed=0;shape=mxgraph.ios7.icons.lightbulb;" parent="1" vertex="1">
                    <mxGeometry x="553.0500000000001" y="290" width="22.8" height="29.7" as="geometry"/>
                </mxCell>
                <mxCell id="2QI1dtcu6XnmUE_soGYw-5" value="App" style="html=1;verticalLabelPosition=bottom;align=center;labelBackgroundColor=#ffffff;verticalAlign=top;strokeWidth=2;strokeColor=#000000;shadow=0;dashed=0;shape=mxgraph.ios7.icons.smartphone;" parent="1" vertex="1">
                    <mxGeometry x="50" y="204.85" width="30" height="50.5" as="geometry"/>
                </mxCell>
                <mxCell id="2QI1dtcu6XnmUE_soGYw-6" value="" style="sketch=0;outlineConnect=0;fontColor=#232F3E;gradientColor=none;fillColor=#000000;strokeColor=none;dashed=0;verticalLabelPosition=bottom;verticalAlign=top;align=center;html=1;fontSize=12;fontStyle=0;aspect=fixed;pointerEvents=1;shape=mxgraph.aws4.sensor;" parent="1" vertex="1">
                    <mxGeometry x="540" y="230" width="48.91" height="54.5" as="geometry"/>
                </mxCell>
                <mxCell id="2QI1dtcu6XnmUE_soGYw-7" value="Admin" style="shape=image;editableCssRules=.*;verticalLabelPosition=bottom;labelBackgroundColor=default;verticalAlign=top;aspect=fixed;imageAspect=0;image=data:image/svg+xml,PHN2ZyB4bWxucz0iaHR0cDovL3d3dy53My5vcmcvMjAwMC9zdmciIHZpZXdCb3g9Ii0wLjUgLTAuNSAyNC4yMzMgMjgiIGhlaWdodD0iMjgiIHdpZHRoPSIyNC4yMzMiPiYjeGE7CSAgPHN0eWxlIHR5cGU9InRleHQvY3NzIj4uc3QwIHsgc3RvcC1jb2xvcjogcmdiKDkxLCAxMTUsIDEzOSk7IH0gLnN0MSB7IHN0b3AtY29sb3I6IHJnYigzNCwgNTMsIDcyKTsgfSA8L3N0eWxlPiYjeGE7CTxkZWZzPiYjeGE7CQk8bGluZWFyR3JhZGllbnQgZ3JhZGllbnRVbml0cz0idXNlclNwYWNlT25Vc2UiIHkyPSIyMi4yMjkiIHgyPSIyMi45NSIgeTE9IjMuNDc0IiB4MT0iMS42OTgiIGlkPSJBIj4mI3hhOwkJCTxzdG9wIGNsYXNzPSJzdDAiLz4mI3hhOwkJCTxzdG9wIGNsYXNzPSJzdDEiIG9mZnNldD0iMSIvPiYjeGE7CQk8L2xpbmVhckdyYWRpZW50PiYjeGE7CTwvZGVmcz4mI3hhOwk8cGF0aCBmaWxsPSJ1cmwoI0EpIiBkPSJNMTUuNTUyIDExLjYwOGwtLjkzMS0uNDM4aC4wMDJhNy4wMyA3LjAzIDAgMCAwIDEuNDgtMi4xOTJjLjQwMS0uODQuNjAzLTEuNzUzLjYwMy0yLjczOSAwLS45NS0uMTg0LTEuODI3LS41NDktMi42M2E2LjQ1IDYuNDUgMCAwIDAtMS40MjQtMi4xMzdDMTQuMTExLjg1MiAxMy4zOTkuMzc3IDEyLjU5Ni4wNDlBNi4yNyA2LjI3IDAgMCAwIDkuOTY2LS41Yy0uOTE0IDAtMS43OS4xODItMi42My41NDdhNi4zMiA2LjMyIDAgMCAwLTIuMTkyIDEuNDI1QTcuOCA3LjggMCAwIDAgMy43MTkgMy42MWMtLjM2NS44MDMtLjU0NyAxLjY4LS41NDcgMi42M2E2LjYzIDYuNjMgMCAwIDAgLjYwMSAyLjc5M2MuMzk3LjgzMy45NTYgMS41NzggMS42NDUgMi4xOTItMS43NTMuNjk0LTMuMTc3IDEuODQ2LTQuMjczIDMuNDUyQy4wNDkgMTYuMjQ4LS41IDE4LjA1NS0uNSAyMC4xMDF2Mi43NGMtLjAwOS4zNC4xMDguNjcyLjMyOC45MzFhMS4zOCAxLjM4IDAgMCAwIC45MzMuMzI4aDkuMzFjLjE1Mi4wMDQuMzA0LS4wMjMuNDQ1LS4wOHMuMjctLjE0Mi4zNzctLjI1YTEuMjcgMS4yNyAwIDAgMCAuMzg0LS45MjkgMS4wNCAxLjA0IDAgMCAwLS4zODQtLjgyMmMtLjIxOS0uMjU2LS40OTMtLjM4NC0uODIyLS4zODRIMS45NjZ2LTEuNTM0YzAtLjk4Ny4xNjMtMS44OTkuNDkxLTIuNzQuMzQxLS44MzkuODQzLTEuNjAyIDEuNDgtMi4yNDYuNjIxLS42NTggMS4zMzQtMS4xNjggMi4xMzctMS41MzRhNi42NyA2LjY3IDAgMCAxIDIuNjg0LS41NDdoMi42M2MuODA2LS4wMDYgMS42MDYuMTQyIDIuMzU3LjQzOC43NjYuMjU2IDEuMzY5LjU4NCAxLjgwOC45ODdhMi41OCAyLjU4IDAgMCAwIC42NTcuNDkxYy4xOTguMDY3LjM5OS4xMjIuNjAzLjE2NS4yOTMgMCAuNTY2LS4xMjguODIyLS4zODIuMTgyLS4xODIuMjczLS4zODQuMjczLS42MDN2LS4xNjVjLS4wMDgtLjM0Ny0uMTQ1LS42NzktLjM4NC0uOTMxYTUuMTggNS4xOCAwIDAgMC0uOTMxLS44MjIgNC4zMSA0LjMxIDAgMCAwLTEuMDQxLS42MDN6bS0yLjU3Ni0yLjMwMmMtLjgzOC44NDItMS44NDQgMS4yNjItMy4wMTIgMS4yNjJ2LS4wMDJjLTEuMTY5IDAtMi4xOTItLjQxOS0zLjA2OC0xLjI1OUE0LjE4IDQuMTggMCAwIDEgNS42MzUgNi4yNGE0LjExIDQuMTEgMCAwIDEgMS4yNjEtMy4wMTRjLjg3Ny0uODQgMS44OTktMS4yNjEgMy4wNjgtMS4yNjFhNC4xMSA0LjExIDAgMCAxIDMuMDEyIDEuMjYxYy44NzcuODQgMS4zMTUgMS44NDQgMS4zMTUgMy4wMTJhNC4wOCA0LjA4IDAgMCAxLTEuMzE1IDMuMDY4em0uMTUxIDE2LjMwOWEuODUuODUgMCAwIDEgLjIxMy0uNTdsNC4wMDEtNC4xNDJjLS4wOTUtLjMxNC0uMTQyLS42MzctLjE0Mi0uOTY3YTMuNjEgMy42MSAwIDAgMSAuMjYtMS4zNjRjLjE3NC0uNDMuNDE4LS44MDIuNzM0LTEuMTE2YTMuMTQgMy4xNCAwIDAgMSAxLjA2NS0uNzY5Yy4zOTUtLjE5OC44MjktLjI5OCAxLjMwMi0uMjk4YTMuMDkgMy4wOSAwIDAgMSAxLjk2NS42N2MuNTY4LjQzLjk3MS45OTIgMS4yMDcgMS42ODZIMjAuOTRjLS4yMjEgMC0uNDM0LjA3NC0uNjM5LjIyMy0uMjIxLjE0OS0uMzMxLjMzOS0uMzMxLjU3di43OTRjMCAuMjMyLjExLjQzLjMzMS41OTUuMjA1LjE0OS40MTguMjIzLjYzOS4yMjNoMi43OTRjLS4yMzcuNjYxLS42MzkgMS4yMTUtMS4yMDcgMS42NjItLjU2OC40My0xLjIyMy42NDUtMS45NjUuNjQ1LS40NTggMC0uODY4LS4wODMtMS4yMzEtLjI0OGwtMy44NTkgNC4wNjdhLjcyLjcyIDAgMCAxLS41NDQuMjIzYy0uMTg5IDAtLjM1NS0uMDc0LS40OTctLjIyM2wtMS4wODktMS4xNDFhLjczLjczIDAgMCAxLS4yMTMtLjUyMXoiIGZpbGwtcnVsZT0iZXZlbm9kZCIvPiYjeGE7PC9zdmc+;" parent="1" vertex="1">
                    <mxGeometry x="50" y="313.33" width="48.57" height="56.67" as="geometry"/>
                </mxCell>
                <mxCell id="2QI1dtcu6XnmUE_soGYw-8" value="" style="endArrow=classic;html=1;entryX=1;entryY=0.5;entryDx=0;entryDy=0;strokeColor=#009900;strokeWidth=2;" parent="1" source="2QI1dtcu6XnmUE_soGYw-6" target="2QI1dtcu6XnmUE_soGYw-17" edge="1">
                    <mxGeometry width="50" height="50" relative="1" as="geometry">
                        <mxPoint x="530" y="240" as="sourcePoint"/>
                        <mxPoint x="470" y="215.85" as="targetPoint"/>
                    </mxGeometry>
                </mxCell>
                <mxCell id="2QI1dtcu6XnmUE_soGYw-9" value="" style="endArrow=classic;html=1;exitX=1;exitY=0.5;exitDx=0;exitDy=0;strokeWidth=2;strokeColor=#0000CC;" parent="1" source="2QI1dtcu6XnmUE_soGYw-20" edge="1">
                    <mxGeometry width="50" height="50" relative="1" as="geometry">
                        <mxPoint x="470" y="244.5" as="sourcePoint"/>
                        <mxPoint x="550" y="310" as="targetPoint"/>
                    </mxGeometry>
                </mxCell>
                <mxCell id="2QI1dtcu6XnmUE_soGYw-10" value="" style="endArrow=classic;html=1;entryX=0;entryY=0.5;entryDx=0;entryDy=0;strokeColor=#0000CC;strokeWidth=2;" parent="1" target="2QI1dtcu6XnmUE_soGYw-26" edge="1">
                    <mxGeometry width="50" height="50" relative="1" as="geometry">
                        <mxPoint x="90" y="235" as="sourcePoint"/>
                        <mxPoint x="159.9999999999999" y="234.5" as="targetPoint"/>
                    </mxGeometry>
                </mxCell>
                <mxCell id="2QI1dtcu6XnmUE_soGYw-11" value="" style="endArrow=classic;html=1;entryX=0;entryY=0.5;entryDx=0;entryDy=0;strokeColor=#990000;strokeWidth=2;" parent="1" target="2QI1dtcu6XnmUE_soGYw-27" edge="1">
                    <mxGeometry width="50" height="50" relative="1" as="geometry">
                        <mxPoint x="90" y="245" as="sourcePoint"/>
                        <mxPoint x="160" y="280" as="targetPoint"/>
                    </mxGeometry>
                </mxCell>
                <mxCell id="2QI1dtcu6XnmUE_soGYw-12" value="" style="endArrow=classic;html=1;exitX=1;exitY=0.5;exitDx=0;exitDy=0;entryX=0;entryY=0.5;entryDx=0;entryDy=0;" parent="1" source="2QI1dtcu6XnmUE_soGYw-7" target="2QI1dtcu6XnmUE_soGYw-29" edge="1">
                    <mxGeometry width="50" height="50" relative="1" as="geometry">
                        <mxPoint x="108.57" y="350" as="sourcePoint"/>
                        <mxPoint x="160" y="350" as="targetPoint"/>
                    </mxGeometry>
                </mxCell>
                <mxCell id="2QI1dtcu6XnmUE_soGYw-13" value="OaaS" style="text;html=1;align=center;verticalAlign=middle;whiteSpace=wrap;rounded=0;" parent="1" vertex="1">
                    <mxGeometry x="275" y="380" width="60" height="30" as="geometry"/>
                </mxCell>
                <mxCell id="2QI1dtcu6XnmUE_soGYw-14" value="&lt;span style=&quot;color: rgb(0, 0, 0); font-weight: 400;&quot;&gt;ParkingSpot&lt;/span&gt;" style="swimlane;fontStyle=1;align=center;verticalAlign=top;childLayout=stackLayout;horizontal=1;startSize=26;horizontalStack=0;resizeParent=1;resizeParentMax=0;resizeLast=0;collapsible=1;marginBottom=0;whiteSpace=wrap;html=1;" parent="1" vertex="1">
                    <mxGeometry x="335" y="201" width="125" height="138" as="geometry"/>
                </mxCell>
                <mxCell id="2QI1dtcu6XnmUE_soGYw-15" value="+&amp;nbsp;&lt;span style=&quot;color: rgb(0, 0, 0);&quot;&gt;status: str&lt;/span&gt;" style="text;align=left;verticalAlign=top;spacingLeft=4;spacingRight=4;overflow=hidden;rotatable=0;points=[[0,0.5],[1,0.5]];portConstraint=eastwest;whiteSpace=wrap;html=1;fillColor=default;" parent="2QI1dtcu6XnmUE_soGYw-14" vertex="1">
                    <mxGeometry y="26" width="125" height="26" as="geometry"/>
                </mxCell>
                <mxCell id="2QI1dtcu6XnmUE_soGYw-16" value="" style="line;strokeWidth=1;fillColor=none;align=left;verticalAlign=middle;spacingTop=-1;spacingLeft=3;spacingRight=3;rotatable=0;labelPosition=right;points=[];portConstraint=eastwest;strokeColor=inherit;" parent="2QI1dtcu6XnmUE_soGYw-14" vertex="1">
                    <mxGeometry y="52" width="125" height="8" as="geometry"/>
                </mxCell>
                <mxCell id="2QI1dtcu6XnmUE_soGYw-17" value="+&amp;nbsp;&lt;span style=&quot;color: rgb(0, 0, 0);&quot;&gt;update_status()&lt;/span&gt;" style="text;align=left;verticalAlign=top;spacingLeft=4;spacingRight=4;overflow=hidden;rotatable=0;points=[[0,0.5],[1,0.5]];portConstraint=eastwest;whiteSpace=wrap;html=1;fillColor=default;" parent="2QI1dtcu6XnmUE_soGYw-14" vertex="1">
                    <mxGeometry y="60" width="125" height="26" as="geometry"/>
                </mxCell>
                <mxCell id="2QI1dtcu6XnmUE_soGYw-18" value="+&amp;nbsp;&lt;span style=&quot;color: rgb(0, 0, 0);&quot;&gt;reserve()&lt;/span&gt;&lt;div&gt;&lt;span style=&quot;color: rgb(0, 0, 0);&quot;&gt;&lt;br&gt;&lt;/span&gt;&lt;/div&gt;" style="text;strokeColor=none;fillColor=default;align=left;verticalAlign=top;spacingLeft=4;spacingRight=4;overflow=hidden;rotatable=0;points=[[0,0.5],[1,0.5]];portConstraint=eastwest;whiteSpace=wrap;html=1;" parent="2QI1dtcu6XnmUE_soGYw-14" vertex="1">
                    <mxGeometry y="86" width="125" height="26" as="geometry"/>
                </mxCell>
                <mxCell id="2QI1dtcu6XnmUE_soGYw-19" value="" style="endArrow=classic;html=1;entryX=0;entryY=0.5;entryDx=0;entryDy=0;strokeColor=#990000;strokeWidth=2;" parent="2QI1dtcu6XnmUE_soGYw-14" target="2QI1dtcu6XnmUE_soGYw-15" edge="1">
                    <mxGeometry width="50" height="50" relative="1" as="geometry">
                        <mxPoint x="-35" y="86" as="sourcePoint"/>
                        <mxPoint x="32" y="126" as="targetPoint"/>
                    </mxGeometry>
                </mxCell>
                <mxCell id="2QI1dtcu6XnmUE_soGYw-20" value="-&amp;nbsp;&lt;span style=&quot;color: rgb(0, 0, 0);&quot;&gt;turn_light()&lt;/span&gt;" style="text;strokeColor=none;fillColor=default;align=left;verticalAlign=top;spacingLeft=4;spacingRight=4;overflow=hidden;rotatable=0;points=[[0,0.5],[1,0.5]];portConstraint=eastwest;whiteSpace=wrap;html=1;" parent="2QI1dtcu6XnmUE_soGYw-14" vertex="1">
                    <mxGeometry y="112" width="125" height="26" as="geometry"/>
                </mxCell>
                <mxCell id="2QI1dtcu6XnmUE_soGYw-21" value="" style="endArrow=classic;html=1;entryX=0;entryY=0.5;entryDx=0;entryDy=0;exitX=0;exitY=0.5;exitDx=0;exitDy=0;edgeStyle=orthogonalEdgeStyle;elbow=vertical;strokeWidth=2;strokeColor=#0000CC;" parent="2QI1dtcu6XnmUE_soGYw-14" source="2QI1dtcu6XnmUE_soGYw-18" target="2QI1dtcu6XnmUE_soGYw-20" edge="1">
                    <mxGeometry width="50" height="50" relative="1" as="geometry">
                        <mxPoint x="-28" y="64" as="sourcePoint"/>
                        <mxPoint x="11" y="100" as="targetPoint"/>
                        <Array as="points">
                            <mxPoint x="-25" y="99"/>
                            <mxPoint x="-25" y="125"/>
                        </Array>
                    </mxGeometry>
                </mxCell>
                <mxCell id="2QI1dtcu6XnmUE_soGYw-22" value="" style="endArrow=classic;html=1;exitX=0.998;exitY=0.178;exitDx=0;exitDy=0;edgeStyle=orthogonalEdgeStyle;elbow=vertical;strokeWidth=2;strokeColor=#009900;entryX=1;entryY=0.5;entryDx=0;entryDy=0;exitPerimeter=0;" parent="2QI1dtcu6XnmUE_soGYw-14" source="2QI1dtcu6XnmUE_soGYw-17" target="2QI1dtcu6XnmUE_soGYw-15" edge="1">
                    <mxGeometry width="50" height="50" relative="1" as="geometry">
                        <mxPoint x="10" y="109" as="sourcePoint"/>
                        <mxPoint x="125" y="69" as="targetPoint"/>
                        <Array as="points">
                            <mxPoint x="145" y="65"/>
                            <mxPoint x="145" y="39"/>
                        </Array>
                    </mxGeometry>
                </mxCell>
                <mxCell id="2QI1dtcu6XnmUE_soGYw-23" value="&lt;span style=&quot;color: rgb(0, 0, 0); font-weight: 400;&quot;&gt;ParkingLot&lt;/span&gt;" style="swimlane;fontStyle=1;align=center;verticalAlign=top;childLayout=stackLayout;horizontal=1;startSize=26;horizontalStack=0;resizeParent=1;resizeParentMax=0;resizeLast=0;collapsible=1;marginBottom=0;whiteSpace=wrap;html=1;" parent="1" vertex="1">
                    <mxGeometry x="157" y="186" width="140" height="168" as="geometry"/>
                </mxCell>
                <mxCell id="2QI1dtcu6XnmUE_soGYw-24" value="+&amp;nbsp;&lt;span style=&quot;color: rgb(0, 0, 0);&quot;&gt;spots: dict&lt;/span&gt;" style="text;strokeColor=none;fillColor=default;align=left;verticalAlign=top;spacingLeft=4;spacingRight=4;overflow=hidden;rotatable=0;points=[[0,0.5],[1,0.5]];portConstraint=eastwest;whiteSpace=wrap;html=1;" parent="2QI1dtcu6XnmUE_soGYw-23" vertex="1">
                    <mxGeometry y="26" width="140" height="26" as="geometry"/>
                </mxCell>
                <mxCell id="2QI1dtcu6XnmUE_soGYw-25" value="" style="line;strokeWidth=1;fillColor=none;align=left;verticalAlign=middle;spacingTop=-1;spacingLeft=3;spacingRight=3;rotatable=0;labelPosition=right;points=[];portConstraint=eastwest;strokeColor=inherit;" parent="2QI1dtcu6XnmUE_soGYw-23" vertex="1">
                    <mxGeometry y="52" width="140" height="8" as="geometry"/>
                </mxCell>
                <mxCell id="2QI1dtcu6XnmUE_soGYw-26" value="+ reserve_spot&lt;span style=&quot;color: rgb(0, 0, 0);&quot;&gt;()&lt;/span&gt;" style="text;strokeColor=none;fillColor=default;align=left;verticalAlign=top;spacingLeft=4;spacingRight=4;overflow=hidden;rotatable=0;points=[[0,0.5],[1,0.5]];portConstraint=eastwest;whiteSpace=wrap;html=1;" parent="2QI1dtcu6XnmUE_soGYw-23" vertex="1">
                    <mxGeometry y="60" width="140" height="26" as="geometry"/>
                </mxCell>
                <mxCell id="2QI1dtcu6XnmUE_soGYw-27" value="+&amp;nbsp;&lt;span style=&quot;color: rgb(0, 0, 0);&quot;&gt;get_available_count()&lt;/span&gt;&lt;div&gt;&lt;span style=&quot;color: rgb(0, 0, 0);&quot;&gt;&lt;br&gt;&lt;/span&gt;&lt;/div&gt;" style="text;strokeColor=none;fillColor=default;align=left;verticalAlign=top;spacingLeft=4;spacingRight=4;overflow=hidden;rotatable=0;points=[[0,0.5],[1,0.5]];portConstraint=eastwest;whiteSpace=wrap;html=1;" parent="2QI1dtcu6XnmUE_soGYw-23" vertex="1">
                    <mxGeometry y="86" width="140" height="26" as="geometry"/>
                </mxCell>
                <mxCell id="2QI1dtcu6XnmUE_soGYw-28" value="+ add_spot&lt;span style=&quot;color: rgb(0, 0, 0);&quot;&gt;()&lt;/span&gt;" style="text;strokeColor=none;fillColor=default;align=left;verticalAlign=top;spacingLeft=4;spacingRight=4;overflow=hidden;rotatable=0;points=[[0,0.5],[1,0.5]];portConstraint=eastwest;whiteSpace=wrap;html=1;" parent="2QI1dtcu6XnmUE_soGYw-23" vertex="1">
                    <mxGeometry y="112" width="140" height="30" as="geometry"/>
                </mxCell>
                <mxCell id="2QI1dtcu6XnmUE_soGYw-29" value="+ remove_spot&lt;span style=&quot;color: rgb(0, 0, 0);&quot;&gt;()&lt;/span&gt;" style="text;strokeColor=none;fillColor=default;align=left;verticalAlign=top;spacingLeft=4;spacingRight=4;overflow=hidden;rotatable=0;points=[[0,0.5],[1,0.5]];portConstraint=eastwest;whiteSpace=wrap;html=1;" parent="2QI1dtcu6XnmUE_soGYw-23" vertex="1">
                    <mxGeometry y="142" width="140" height="26" as="geometry"/>
                </mxCell>
                <mxCell id="2QI1dtcu6XnmUE_soGYw-30" value="" style="endArrow=classic;html=1;entryX=0;entryY=0.5;entryDx=0;entryDy=0;exitX=1.026;exitY=0.195;exitDx=0;exitDy=0;exitPerimeter=0;" parent="1" source="2QI1dtcu6XnmUE_soGYw-7" target="2QI1dtcu6XnmUE_soGYw-28" edge="1">
                    <mxGeometry width="50" height="50" relative="1" as="geometry">
                        <mxPoint x="30" y="395" as="sourcePoint"/>
                        <mxPoint x="170" y="360" as="targetPoint"/>
                    </mxGeometry>
                </mxCell>
                <mxCell id="2QI1dtcu6XnmUE_soGYw-31" value="" style="endArrow=classic;html=1;entryX=0.008;entryY=0.167;entryDx=0;entryDy=0;exitX=1.003;exitY=0.34;exitDx=0;exitDy=0;exitPerimeter=0;entryPerimeter=0;strokeWidth=2;strokeColor=#0000CC;" parent="1" source="2QI1dtcu6XnmUE_soGYw-26" target="2QI1dtcu6XnmUE_soGYw-18" edge="1">
                    <mxGeometry width="50" height="50" relative="1" as="geometry">
                        <mxPoint x="550" y="264" as="sourcePoint"/>
                        <mxPoint x="470" y="284" as="targetPoint"/>
                    </mxGeometry>
                </mxCell>
                <mxCell id="fRAA_UriovSm0RtjMIZF-1" value="Signal Light" style="text;html=1;align=center;verticalAlign=middle;resizable=0;points=[];autosize=1;strokeColor=none;fillColor=none;" vertex="1" parent="1">
                    <mxGeometry x="519.45" y="319.7" width="90" height="30" as="geometry"/>
                </mxCell>
                <mxCell id="FZdwo-GXsaRkc5cKPRES-1" value="Parking Spot" style="text;html=1;align=center;verticalAlign=middle;resizable=0;points=[];autosize=1;strokeColor=none;fillColor=none;" vertex="1" parent="1">
                    <mxGeometry x="519.45" y="204.85" width="90" height="30" as="geometry"/>
                </mxCell>
            </root>
        </mxGraphModel>
    </diagram>
</mxfile>